<svg width="48" height="48" viewBox="0 0 48 48" fill="none" xmlns="http://www.w3.org/2000/svg">
<path fill-rule="evenodd" clip-rule="evenodd" d="M8.69487 44.8948C8.69487 42.9572 8.47106 42.248 9.1795 40.9008C9.48604 41.2101 9.76741 41.5437 10.0209 41.8985C10.4719 42.5127 10.2918 42.5347 10.3339 43.434L10.625 46.8426C10.1387 46.8019 9.76847 46.4133 9.44706 46.0876C9.05498 45.6956 8.69655 45.6702 8.69655 44.8999L8.69487 44.8948ZM36.5161 41.3878H37.0983C37.4349 41.5439 37.5729 41.5846 37.7832 41.2894C38.2763 41.1553 39.0705 40.0745 39.3213 39.63C40.3309 37.8468 39.7857 38.3829 40.134 37.0392C40.3023 36.4148 40.1963 35.5512 40.1946 34.8589C40.1946 33.9512 40.2872 33.5847 40.3932 32.8229C40.5278 31.8694 40.3932 31.6573 40.3831 30.775C40.3696 29.9369 40.4841 29.4788 40.4857 28.627C40.458 27.6633 40.3006 26.7078 40.0179 25.7868L38.7626 23.7406C38.246 23.0891 35.8733 21.109 35.1716 20.639C34.6957 20.3549 34.2002 20.1054 33.689 19.8925C33.1085 19.6193 32.6878 19.487 32.1745 19.1816C31.6613 18.8762 29.2347 18.4911 28.5078 18.4944C25.8877 18.5063 25.1944 18.3519 22.5743 19.2393C21.9736 19.4429 21.4654 19.5888 20.8697 19.7653C19.6766 20.1199 20.2471 19.6193 19.3636 19.4259C19.0119 19.3479 18.1251 19.7822 17.7532 19.9349C16.0805 20.6136 14.8134 21.0038 13.0785 21.8471C12.0469 22.3561 10.7849 22.5258 9.82401 23.0483L5.21658 25.1149C4.64444 25.3728 4.11942 25.405 3.96124 26.0905C4.29779 26.5995 4.62257 26.4027 5.83416 26.8319C6.54934 27.0847 6.94815 27.3834 7.76598 27.5106L12.954 27.6277C14.1067 27.5428 12.7083 28.1367 14.243 28.7729C14.6081 28.9222 14.7713 29.0291 15.1331 29.1428C16.0015 29.4143 17.7448 29.7451 18.2614 29.9912L19.6632 30.6223C19.8398 30.736 19.9997 30.7428 20.03 31.0329C20.0346 31.0576 20.0437 31.0812 20.0569 31.1025C20.0814 31.1836 20.0967 31.2673 20.1024 31.3519C20.2033 32.4734 19.6463 33.0825 19.5117 34.3686C19.4764 34.7079 19.2694 35.8956 19.1415 36.0415L16.3414 37.4073C15.8147 37.577 15.2997 37.7993 14.773 37.974C14.0595 38.2116 13.8526 37.8281 13.4268 37.4922C13.0011 37.1562 12.6864 36.7626 12.015 37.0358C10.2245 37.7687 9.2485 39.63 8.56698 40.1899C8.37682 40.346 8.38692 40.2849 8.23042 40.4444C7.93089 40.7532 8.0958 40.7837 8.04532 41.1384C7.85012 42.5602 7.70876 43.4289 7.82487 45.0865C7.88041 45.8687 8.00661 46.074 8.50976 46.4439L9.67424 47.4127C11.2493 48.3408 11.6582 48.0201 13.5614 47.4704C13.8845 47.3787 14.142 47.3295 14.4028 47.2481C14.9699 47.0784 15.4125 46.8697 16.0233 46.7391C16.5786 46.6203 17.0953 46.5423 17.7313 46.4167C18.3674 46.2912 18.7679 46.0774 19.3569 45.9077C19.9459 45.7381 20.4473 45.6905 20.9976 45.5158C21.5479 45.341 21.95 45.1239 22.5407 44.9287C23.0876 44.7591 23.5992 44.6539 24.1376 44.4927C25.7666 44.0091 26.0577 44.0295 27.3955 43.6868L34.0037 41.9714C34.4715 41.8391 35.1665 41.5812 35.7185 41.5812C36.0096 41.9069 36.4757 42.0257 36.5094 41.3878H36.5161ZM36.8123 40.4376C36.6776 40.5598 36.432 40.5106 36.1762 40.5106C35.8396 40.385 35.7033 40.0185 35.2624 40.0168C35.0218 40.0168 34.8956 40.066 34.8182 40.2612C34.7021 40.5598 34.8569 40.6192 34.9865 40.8194C34.6499 40.9483 33.9768 41.0756 33.6116 41.1723L32.156 41.554C30.8687 42.0206 27.87 42.7163 26.4346 43.003L22.1621 44.1517C21.6202 44.3332 21.3341 44.5012 20.8377 44.6607C20.3699 44.8168 19.8432 44.8405 19.4074 44.9712C18.9312 45.1137 18.5239 45.2749 18.0342 45.4377C17.0868 45.7516 16.057 45.7415 15.1129 46.0978L12.264 46.941C12.7268 46.057 13.3359 45.4259 13.8088 44.5029C14.1218 43.8904 14.2884 44.0482 14.3759 43.1269C14.4479 42.4846 14.485 41.8389 14.487 41.1926C15.8332 41.1926 18.1604 39.9066 19.2324 39.5469C20.3766 39.1651 22.0123 38.9649 22.194 37.7603C22.2327 37.4973 22.2075 37.3123 22.2546 37.0426C22.5575 35.3289 24.0821 31.1042 23.1448 29.735C22.1654 28.3131 20.5483 28.476 20.0906 27.8449C21.2551 27.9433 22.7376 28.2334 24.1124 28.0026C25.1019 27.833 26.8435 27.6871 26.3084 25.9666C25.9719 24.8791 25.4048 24.6008 24.8276 24.2445C24.1309 23.8118 24.035 23.1366 22.5121 23.2757L20.5735 23.369C20.9437 22.8125 21.8676 22.541 20.6695 20.7392L24.7956 19.5396C26.1418 19.3207 30.586 19.2427 31.9558 20.0757C32.4774 20.393 33.2431 20.5966 33.8438 20.9003C35.5872 21.7843 35.3348 21.9082 36.2098 22.6072C36.8173 23.0908 37.8623 23.8407 38.2628 24.5312C38.5657 25.0555 39.0217 25.6629 39.2506 26.2635C39.9237 28.0298 39.3802 29.9555 39.5266 31.2467C39.6427 32.2885 39.54 32.6261 39.3701 33.6509C39.2321 34.4992 39.3701 35.446 39.3196 36.3266C39.2826 37.0052 39.2657 38.0046 38.8938 38.6256C38.5943 39.1227 38.1871 39.9829 37.7344 40.2238C37.6015 39.9948 37.5241 39.7047 37.3608 39.4688C37.1353 39.1464 37.0243 39.0548 36.5195 39.0548C36.2553 40.1967 36.7382 39.4892 36.8089 40.4427L36.8123 40.4376ZM19.6144 44.3095C19.2206 44.3095 19.2004 43.7444 19.5168 43.1404C20.7805 43.1404 20.0502 44.3095 19.6144 44.3095ZM11.4008 42.7502L11.1955 42.8486L11.2089 42.7502H11.4008ZM11.1719 43.8225C11.4024 44.3875 11.4008 45.7618 11.4008 46.5508C11.6599 46.359 13.1121 44.1025 13.3528 43.646C13.5934 43.1896 13.6893 41.4963 13.5598 40.8821C13.5598 40.8821 13.6624 40.7854 13.2602 40.4919C12.991 40.2968 11.7558 39.7454 10.7243 39.0497C10.3339 39.3127 10.0243 39.8166 9.75838 40.2187L10.97 41.7763C11.7928 41.6881 11.8265 40.7939 12.7537 41.2894C12.7537 42.007 12.4794 42.0529 11.9241 42.4024L11.5875 42.6535C12.1075 42.6535 12.6612 42.7655 12.2607 43.3118C12.1311 43.4815 11.4277 43.7716 11.1719 43.8208V43.8225ZM37.7799 29.1123C37.7799 28.6033 37.8976 28.4709 38.1652 28.2351C38.7828 28.381 38.6498 28.4048 38.6498 29.7943C38.6498 30.1914 37.7799 30.7072 37.7799 29.1157V29.1123ZM18.0679 44.5046C18.078 44.0329 18.0898 42.8486 18.6484 42.8486C19.2711 42.8486 19.1617 44.3841 18.5508 44.7964C18.1975 44.7014 18.3489 44.6946 18.0679 44.5046ZM24.9285 0.470598C24.9285 1.48861 24.7434 2.41839 25.3156 2.41839C25.8103 2.41839 25.7043 1.83643 25.6992 1.34609C25.6992 0.626693 25.8423 0.689469 25.6992 0.0803608C25.4788 0.020977 25.4048 -0.0536769 25.1944 0.0566074C25.119 0.0976757 25.0549 0.157021 25.0079 0.229292C24.9609 0.301562 24.9325 0.384488 24.9252 0.470598H24.9285ZM1.73998 22.5851C1.73998 21.6723 3.19053 22.6157 3.2915 22.6768C4.56703 23.4301 3.71219 23.7542 3.5742 23.7542C3.24943 23.7542 2.94989 23.4454 2.55444 23.2248C2.15899 23.0042 1.73998 22.9652 1.73998 22.5851ZM41.837 24.9232C44.6119 24.9232 44.5294 23.0653 43.4861 23.5522C43.2085 23.6829 43.0856 23.878 42.6447 23.9883C42.2543 24.0884 41.8606 23.9781 41.6132 24.2258C41.3658 24.4735 41.4449 24.9232 41.832 24.9232H41.837ZM11.4008 16.3498C11.4008 15.9426 11.6868 15.7984 12.0739 15.7662C12.2792 16.075 12.3364 16.338 12.5535 16.6468C13.0583 17.3678 14.3927 17.8904 14.6081 18.7099L14.2009 19.0781C13.6876 18.9576 13.6961 18.7693 13.3444 18.4792C12.8698 18.0889 11.3974 17.0251 11.3974 16.3498H11.4008ZM36.5228 18.6879C36.5228 18.1958 37.4315 17.7157 37.9952 17.2491C38.6936 16.6705 39.1277 16.075 39.6309 15.9443L40.0011 16.2531C39.8715 16.813 39.6965 16.9589 39.2977 17.2949C39.0116 17.5358 37.2784 19.0815 36.9183 19.056C36.8682 19.0588 36.818 19.0514 36.7708 19.0342C36.7236 19.0171 36.6803 18.9905 36.6434 18.9562C36.6065 18.9219 36.5768 18.8804 36.5561 18.8344C36.5354 18.7883 36.5241 18.7384 36.5228 18.6879ZM19.5168 11.9656C19.5168 12.7529 20.0805 13.8167 20.3581 14.5259C20.5264 14.9721 20.6728 15.2928 20.863 15.6746C21.2382 16.4245 21.738 16.1479 21.738 15.6746C21.738 15.3183 21.4587 14.9586 21.3224 14.6328L20.4928 12.5425C20.2656 11.7892 20.5634 11.9724 19.9997 11.4787C19.791 11.5906 19.5168 11.6483 19.5168 11.9656ZM21.8373 43.0437C22.0207 42.6908 21.9366 42.7163 22.3253 42.5636C23.0724 42.27 24.9033 41.9103 25.7396 41.6202C26.0762 41.5048 26.8604 41.1553 26.8604 41.7763C26.8604 42.455 25.1894 42.6501 24.3076 42.9046C22.1873 43.512 22.1907 43.7156 21.8373 43.0437ZM28.5027 15.7662C28.5027 16.0801 29.0732 16.5585 29.4316 15.6304C29.5282 15.3764 29.6406 15.1287 29.7682 14.889C30.1687 14.0865 31.5082 10.9697 31.5082 10.4081C31.5082 10.2757 30.9024 9.6734 30.5725 10.6337C30.1552 11.8485 29.3626 13.8795 28.7888 14.9721C28.6345 15.2106 28.5393 15.4829 28.5112 15.7662H28.5027ZM31.2086 21.7046C31.2086 21.4993 31.244 21.5756 31.3062 21.3143C32.0736 21.3143 32.1476 21.3466 32.6525 21.6045C34.766 22.6768 36.1863 23.3639 37.5661 25.2252C38.1248 25.9819 38.49 27.4529 37.7731 27.4529C37.1724 27.4529 37.3491 26.9286 37.1993 26.3755C36.9587 25.4916 35.7639 24.4379 35.0672 23.9442C34.4386 23.5219 33.7825 23.1427 33.1034 22.8091C32.7349 22.6259 32.4135 22.4409 32.0719 22.2899C31.7303 22.1389 31.2019 22.1202 31.2019 21.7046H31.2086ZM40.1946 20.7307C39.6898 20.7307 39.7285 20.052 40.1946 19.7551C41.0007 19.2325 42.1534 18.7014 43.3077 17.9244C43.8984 17.5273 46.9644 15.4693 47.5399 15.4693C47.7435 15.4693 47.6678 15.5049 47.9269 15.5677C47.9269 15.8714 48.1306 15.8442 47.858 16.1734L45.2581 17.6495C43.784 18.5436 43.1597 19.1578 41.2565 20.1419C40.8644 20.3438 40.5312 20.7273 40.1946 20.7273V20.7307ZM0 15.1808C0 14.0729 2.37439 15.7102 2.7833 15.9783L5.81228 18.0889C7.32678 19.2104 6.58467 18.6963 7.70708 19.6855C8.02176 19.9638 8.40543 20.0707 8.40543 20.6373C8.40543 20.7544 8.20518 20.9292 8.02008 20.9292C7.65155 20.9292 7.2561 20.4032 7.03061 20.1725C6.73505 19.883 6.4202 19.6143 6.08826 19.3682L4.14129 17.921C2.88931 16.9708 2.10851 16.6332 0.92384 15.9053L0.363477 15.5948C0.169959 15.4896 0 15.4744 0 15.1808ZM25.1221 4.6614C24.9538 5.40964 24.9942 6.77207 25.0951 7.51352C25.2012 8.2906 25.1221 9.66322 25.1221 10.5065C25.1221 11.6178 25.2197 12.3643 25.218 13.4282C25.218 14.3749 24.9285 16.0597 25.7009 16.0597C26.194 16.0597 26.0947 15.4828 26.0897 14.9891C26.0897 14.4682 26.0897 13.9439 26.0897 13.4248C26.0897 12.8632 25.9853 12.6901 25.987 12.0674C25.987 10.8 26.0257 8.63842 25.9062 7.56951C25.7985 6.59053 26.0021 5.55046 25.7968 4.6614C25.5074 4.58335 25.4081 4.54772 25.1237 4.6614H25.1221ZM32.4657 17.2287C32.4657 17.4832 32.5363 17.7157 32.851 17.7157C33.1657 17.7157 33.7362 16.8504 33.9415 16.5738L36.6776 12.6103C37.0007 12.1387 37.2902 11.7722 37.6048 11.3056C38.2056 10.4148 39.36 9.11689 40.0987 8.16844C40.3528 7.84098 40.5817 7.75615 40.5817 7.38966C40.5838 7.33784 40.5753 7.28614 40.5566 7.23781C40.5379 7.18949 40.5094 7.1456 40.4731 7.10893C40.4367 7.07225 40.3932 7.04358 40.3452 7.02474C40.2973 7.00589 40.246 6.99727 40.1946 6.99943C39.3398 6.99943 34.978 13.6165 34.3605 14.5598C33.9987 15.1062 32.4657 16.9878 32.4657 17.2287ZM10.4349 6.80261C10.2784 7.46093 10.2666 7.37948 11.1517 8.51456C11.3469 8.76567 11.4597 8.83524 11.6565 9.08295L14.6721 13.5435C14.9497 14.0067 15.2173 14.4275 15.4646 14.889L16.5383 17.02C16.9488 18.1042 17.4941 17.4357 17.4941 17.3237C17.4941 16.5416 15.7827 13.7183 15.3065 12.9124C14.5576 11.6534 14.4886 11.3853 13.5783 10.1739L12.1445 8.30757C11.9376 8.0378 11.7878 7.94618 11.5791 7.70864C11.2258 7.30653 11.1517 6.52945 10.4449 6.80601L10.4349 6.80261ZM16.0385 41.4845C16.4339 41.4845 17.4974 41.0756 17.9114 40.9364C21.5563 39.7097 25.2701 38.7613 28.952 37.65C29.8658 37.3734 31.1127 36.8525 31.1127 37.5872C31.1127 38.1912 30.0206 38.2659 29.3525 38.444L19.7725 41.2537C19.091 41.4777 18.4802 41.6541 17.8626 41.8611C17.3207 42.0444 16.5972 42.3617 15.9426 42.3617C15.1129 42.3617 15.4377 41.5405 15.4596 41.4845C16.0385 41.3487 15.6615 41.4845 16.0385 41.4845ZM31.7841 34.5671C31.8716 34.2379 31.8397 34.3974 32.0298 34.1328L32.9436 32.8144L33.9987 33.1147C34.3823 33.1911 34.7727 33.2216 34.973 33.4965C33.6739 33.846 34.5304 34.5671 31.7757 34.5671H31.7841ZM29.1742 31.2552C29.584 31.5504 29.9649 31.8845 30.3117 32.2528C30.8906 32.811 30.7206 32.772 30.7206 34.0802C29.6639 33.8324 29.1742 32.3003 29.1742 31.2552ZM34.973 31.1585L35.8413 29.891C35.9153 30.2117 36.2283 30.8582 36.2283 31.0601C36.2283 31.5962 36.0601 32.2902 35.7454 32.5226C35.668 32.1833 35.5485 32.0916 35.3937 31.8049C35.2671 31.5807 35.1266 31.3648 34.973 31.1585ZM33.9095 31.2552C33.9095 31.5538 34.0609 31.6285 34.246 31.7862C34.5826 32.0577 34.485 31.9661 34.6751 32.3275C33.9751 32.3275 33.1102 31.8456 32.7871 31.9033C32.1745 32.0119 32.0467 32.8908 31.5839 33.2047C31.5839 31.8999 31.4728 32.2308 30.8317 31.6234C30.5658 31.3722 30.1754 30.7411 29.5545 30.5731V30.3746C30.167 30.3746 31.1901 30.076 31.4055 29.7078C31.4627 29.6094 31.8481 28.4132 32.3563 28.0366L32.9368 29.1072C33.3962 30.1252 33.8102 29.8877 34.7694 29.7723C34.586 30.5545 33.9027 30.7818 33.9027 31.2518L33.9095 31.2552ZM31.5957 27.4563C31.4762 27.9059 31.0202 28.3827 30.8266 28.8238C30.5692 29.4126 30.7476 29.2768 29.3727 29.5992C29.4472 29.3322 29.5458 29.0727 29.6672 28.8238C30.0492 28.1333 30.7913 27.6446 31.5957 27.4563ZM32.9419 27.1628C34.1568 27.1916 34.5775 28.1435 34.7071 28.3047C34.8889 28.532 34.9982 28.5693 35.1631 28.8137C34.7235 28.9313 34.2717 28.9968 33.8169 29.0088C33.6335 28.2062 33.0243 27.7549 32.9486 27.156L32.9419 27.1628ZM28.3109 30.7682C28.3109 28.6151 29.5074 27.3918 31.1144 26.5825C31.4611 26.4129 32.501 26.2873 33.0445 26.2873C33.5123 26.2873 34.3638 26.725 34.7273 26.932C35.0353 27.1102 35.074 27.2934 35.2557 27.5683C35.3886 27.7848 35.5564 27.9775 35.7521 28.1384C36.331 28.5948 37.1067 30.4255 37.1067 31.2552C37.1067 33.6017 33.8001 35.4443 32.8544 35.4443C31.4678 35.4443 30.5187 35.1898 29.5511 34.3923C29.122 34.0377 28.3143 32.5124 28.3143 31.7421V30.7682H28.3109ZM14.3002 27.553C14.667 27.3834 16.2135 27.2697 16.9236 27.5378C17.2686 27.6684 17.5849 27.816 17.9333 27.9772C18.7225 28.3386 18.6064 28.1112 20.0603 28.8527C21.8911 29.7842 22.9934 29.5314 22.4818 32.1052C22.295 33.0452 22.3606 33.432 21.9399 34.7758C21.7525 35.3263 21.6007 35.8885 21.4856 36.4589C21.0498 38.7257 21.393 37.8027 19.3468 38.5899C18.8276 38.7625 18.3186 38.9648 17.8222 39.1956C17.1272 39.5503 15.3603 40.3155 14.6822 40.3155C14.3456 40.3155 12.2455 38.7884 11.3957 38.5611C11.7239 38.0691 11.84 38.2404 12.3633 37.7823C14.837 39.4535 13.4857 39.1397 16.8075 38.1726C17.245 38.0453 18.7023 37.1783 19.1381 37.0154C20.4642 36.5217 19.8112 37.1851 20.3245 34.7045C20.4574 34.0785 20.4103 33.829 20.6291 33.259C21.0127 32.2511 20.9656 32.0883 20.9656 31.0533C20.9656 29.9436 19.3417 29.5449 18.9025 29.3345C17.7768 28.7933 17.1996 28.8035 16.0048 28.4574C15.6464 28.3539 14.8454 28.1689 14.5459 27.9789C14.2463 27.7889 14.3439 27.9042 14.2985 27.5462L14.3002 27.553ZM18.4549 27.1628C19.0641 27.1628 19.1684 27.173 19.4208 27.553C19.0355 27.4631 18.6535 27.4377 18.4549 27.1628ZM19.3249 24.1427C20.2807 24.3684 20.9 24.1783 21.3257 24.1987C22.6467 24.2632 22.1974 24.1427 23.1886 24.1427C23.4544 24.1427 25.0632 25.4033 25.2079 25.6171C25.7968 26.5011 25.5226 26.7878 24.8107 26.9456C23.4561 27.2459 24.1376 27.1628 22.6114 27.1628C19.0001 27.1628 19.9762 26.384 19.3266 26.384C17.1828 26.384 16.0166 26.5537 14.0091 26.6741C11.4664 26.8167 10.7815 26.798 8.11936 26.6741C7.1585 26.6317 6.55607 26.0939 5.70627 25.8937L7.31163 25.1743C9.1509 24.5635 9.43697 24.1172 10.6183 23.6371C11.1803 23.4097 11.7962 23.2536 12.4138 23.0127L18.4162 20.5881C18.7458 20.4789 19.0834 20.396 19.4259 20.3404L19.9509 21.1752C20.757 22.5512 20.3396 22.1101 19.6564 23.0093C19.1634 23.6473 19.2913 23.7389 19.3316 24.1427H19.3249Z" fill="#1F1F20"/>
</svg>
