<svg width="31" height="31" viewBox="0 0 31 31" fill="none" xmlns="http://www.w3.org/2000/svg">
<circle cx="15.5" cy="15.5" r="15" stroke="white"/>
<path d="M16 7.5C16.9283 7.5 17.8185 7.86875 18.4749 8.52513C19.1313 9.1815 19.5 10.0717 19.5 11C19.5 11.9283 19.1313 12.8185 18.4749 13.4749C17.8185 14.1313 16.9283 14.5 16 14.5C15.0717 14.5 14.1815 14.1313 13.5251 13.4749C12.8687 12.8185 12.5 11.9283 12.5 11C12.5 10.0717 12.8687 9.1815 13.5251 8.52513C14.1815 7.86875 15.0717 7.5 16 7.5ZM16 17.5C18.1493 17.5 20.0695 17.9363 21.4339 18.6185C22.8281 19.3155 23.5 20.1863 23.5 21V22.5H8.5V21C8.5 20.1863 9.17194 19.3155 10.5661 18.6185C11.9305 17.9363 13.8507 17.5 16 17.5Z" stroke="white"/>
</svg>
