<svg width="62" height="41" viewBox="0 0 62 41" fill="none" xmlns="http://www.w3.org/2000/svg">
<path fill-rule="evenodd" clip-rule="evenodd" d="M8.46452 28.9685C8.46452 30.1588 8.93808 30.5691 10.1663 30.3278C10.8356 30.1978 11.8397 29.8208 12.596 29.8208C12.4923 30.3166 12.5391 30.4726 12.2864 30.8625C11.8848 31.4809 10.7302 32.8066 10.0023 32.8066C8.57831 32.8066 7.47725 33.1502 6.63556 30.675C6.32599 29.7651 6.54352 29.9805 6.54352 29.5015C6.54352 28.9685 6.4381 29.4086 6.49667 28.8126C6.57633 28.0759 6.86324 27.3859 7.31661 26.8406C7.85376 26.252 11.6673 25.0766 11.8346 27.1563C10.8909 27.6576 8.47121 27.6261 8.47121 28.9685H8.46452ZM34.0232 14.8956C34.0232 16.2492 35.8471 14.1528 34.6925 14.1528C34.4599 14.1528 34.0232 14.6393 34.0232 14.8956ZM25.8556 37.2835C25.8556 37.8053 26.3576 37.7106 26.7207 37.7106C27.0838 37.7106 27.1039 37.3949 27.1039 36.9678C26.7692 36.8843 25.8556 36.6243 25.8556 37.2872V37.2835ZM35.1744 16.1731C35.1744 14.669 37.236 14.5595 35.8153 16.3588C35.6229 16.602 35.7132 16.576 35.3669 16.6076C35.2514 16.4219 35.1744 16.4219 35.1744 16.1805V16.1731ZM32.6778 14.3608C33.051 14.3608 33.1045 13.8669 32.6962 13.4862C32.5289 13.3247 32.467 13.3098 32.2678 13.1148C31.4228 12.2533 30.797 12.9162 31.7257 13.7146C31.9265 13.8873 32.3833 14.3664 32.6778 14.3664V14.3608ZM20.4791 35.6847L20.5879 36.1062C21.0681 36.2381 21.1619 36.1062 21.8228 36.1062C22.3399 36.1062 22.9774 36.2492 22.9774 35.681C22.9774 35.0776 21.8713 35.254 21.1518 35.254C20.7619 35.254 20.6347 35.4229 20.4825 35.681L20.4791 35.6847ZM2.60782 5.93817C2.97429 6.3671 3.2621 6.27611 4.20419 6.109C4.50416 6.0334 4.80823 5.97944 5.11449 5.94745C6.14694 5.87503 5.91937 5.08587 5.20318 5.08587L3.00273 5.4164C2.67977 5.54081 2.69316 5.53338 2.60782 5.93817ZM60.1373 20.8412C60.2679 21.3871 60.8753 22.2282 61.1547 23.1715C61.3003 23.6636 61.2735 23.8492 61.6969 23.8492C62.5888 23.8492 61.2468 21.4354 61.0594 21.038C60.8184 20.5329 60.974 20.6908 60.544 20.4382L60.1373 20.8412ZM16.4397 37.2835C16.5049 38.1636 17.1358 37.9241 18.5531 37.9241C19.0395 37.9243 19.5256 37.8939 20.0089 37.8331C20.5109 37.7774 21.1468 37.9817 21.1468 37.3912C21.1468 36.9047 20.6615 36.9158 20.1947 36.966L17.5909 37.0699C16.9216 37.0699 16.8614 36.9715 16.4397 37.2835ZM40.6713 32.3796C39.925 32.3796 39.1001 32.3239 38.4006 32.4408C37.8769 32.53 36.3357 32.2106 36.647 33.0722C36.9197 33.8316 40.2095 32.9533 40.9408 33.3396C41.1399 33.7648 41.3474 34.1046 41.5164 34.5651C40.5124 34.5911 38.7855 34.8603 37.482 34.9364C36.2889 35.0089 33.9378 34.9476 33.1564 35.3635V35.8964C33.8257 36.2864 34.0265 35.9298 35.1644 35.8964C36.8059 35.8426 38.2483 35.7832 39.8765 35.5808C40.7667 35.4694 41.1918 35.3245 42.0853 35.4508C42.2978 35.9503 42.5873 36.3124 42.8551 36.7506C40.847 36.7413 39.0365 36.9028 37.1824 36.9585C36.7223 36.9734 36.7457 37.0439 36.3223 37.0699H29.311C29.0383 37.0439 28.7471 36.8973 28.461 36.9864C28.1748 37.0755 27.9908 37.3912 28.2618 37.6864C28.814 38.2862 36.5834 37.9092 38.6366 37.7217L43.6265 37.6029C43.6432 37.6196 43.6717 37.6196 43.6783 37.653C43.685 37.6864 43.7202 37.6938 43.7302 37.705L44.0498 37.9928C44.2177 38.1355 44.3976 38.2599 44.587 38.3642C47.0116 39.7382 46.2436 39.3613 48.9477 39.9202C50.2512 40.1894 52.8466 39.9369 53.8891 39.3037C54.2277 39.085 54.55 38.8366 54.8529 38.561L56.2953 37.497C56.4627 37.3466 56.63 37.2463 56.8107 37.1089C57.473 36.6085 58.0357 35.9626 58.464 35.2112C59.6722 33.2393 61.0376 31.1856 60.7464 28.6436C60.4703 26.2297 60.1123 25.1806 59.0982 23.0118C58.7032 22.2328 58.2263 21.5085 57.6775 20.8542C57.368 20.4624 57.137 20.3324 56.8141 20C55.8419 18.9973 54.6906 18.47 53.4256 18.1079C52.9905 17.9835 52.5889 17.7365 52.1739 17.6864C51.6764 17.6288 51.1828 17.5352 50.6964 17.406C49.0682 17.0346 48.8724 17.4394 47.6626 17.4673C46.8159 15.694 46.9932 16.1508 45.4521 16.1879C45.3852 15.2985 44.3125 13.2913 43.9143 12.4575C44.269 12.3517 44.167 12.3183 44.4163 12.0565C45.253 11.18 48.8757 11.1596 49.8329 11.4307C52.0501 12.0602 52.2408 13.9504 54.0079 13.2095C54.6638 12.9347 54.5316 12.5058 54.1836 12.0416L51.9664 9.37146C50.9624 8.33535 50.2931 8.71229 48.9109 8.71043C48.2733 8.71043 47.9152 8.59717 47.1857 8.59902C45.1325 8.59902 45.3835 8.76799 43.7269 8.92025L42.5672 6.37082C42.4751 6.22031 42.3907 6.06408 42.3146 5.90289C42.1372 5.50924 42.0519 5.20286 41.8695 4.79993C41.5482 4.09247 41.1734 3.53914 40.8989 2.78526C40.489 1.67115 40.1593 1.78999 39.1135 1.88654C38.7386 1.10296 38.5429 0.45678 37.6895 0.161543C37.0117 -0.0742759 35.4371 -0.0371432 35.0288 0.447492C34.4114 1.17909 35.0422 2.33961 35.561 2.62928C35.8956 2.81496 36.2504 2.87438 36.483 3.31259C36.8026 3.91421 36.4529 3.91978 36.9984 4.44526C35.6982 4.44526 34.726 4.4954 33.6969 4.83149C32.9203 5.06906 32.1802 5.4346 31.5014 5.91589C31.4076 5.98784 31.3182 6.06661 31.2337 6.1517C30.3368 5.48509 30.0624 5.93817 29.2257 6.2724C28.5564 6.53978 27.7933 6.72918 27.1123 7.01513C24.9369 7.94355 24.6307 7.64089 22.1993 7.64089C20.6147 7.64089 16.9316 7.34565 15.506 7.5629C15.0903 7.64574 14.6666 7.66696 14.2459 7.62603C13.4678 7.52762 12.2998 7.20454 12.1174 7.96027C11.3761 7.77459 7.26473 7.62975 6.29587 7.79315C4.95719 8.01597 3.24871 7.77273 1.91841 7.94541C1.26748 8.03083 1.02651 7.85443 0.491041 7.85443C0.214939 8.31307 0.0459317 9.22477 0.323707 9.73912C0.601482 10.2535 1.21895 10.2535 1.91841 10.3147C3.46792 10.4521 3.06465 10.4317 2.735 10.9832C2.48567 11.3936 2.5275 12.7602 2.68814 13.1928C3.00775 14.0581 3.94984 14.1825 4.67272 14.5075L8.55488 16.1786C8.66197 17.601 9.22422 18.1228 10.4642 18.5387C10.9829 18.7132 11.4765 18.8915 12.002 19.0716C13.0314 19.3907 14.0332 19.8108 14.9956 20.3268C15.3018 20.4958 16.1569 20.8987 16.617 20.8523L18.2904 20.4624C18.7405 20.3751 19.8081 20.2637 20.0909 20.1133L20.9142 22.0778C21.043 22.4603 21.1217 22.7649 21.2489 23.0991C21.3974 23.445 21.5259 23.8009 21.6337 24.1649C21.1083 24.4434 18.5966 25.175 17.9842 25.2307C17.5625 23.2291 15.1512 20.9953 13.7155 20.0502C12.0907 18.9825 9.56223 18.6297 7.63119 19.0735C5.65999 19.5302 4.23097 20.6054 2.82703 22.1651C2.31498 22.7012 1.83799 23.277 1.39966 23.8882C1.14532 24.2596 1.07671 24.5827 0.875908 24.9058C0.526179 25.4628 0.559652 25.2437 0.358851 26.0385C-0.2469 28.4375 -0.0527919 30.5896 0.693519 32.8958C0.815999 33.3098 0.965891 33.7132 1.14197 34.1027C1.67075 35.2168 2.34344 36.6837 3.37422 37.3819L4.30125 38.0596C4.50205 38.1896 4.60245 38.2453 4.79488 38.366C5.12955 38.5851 5.47258 38.7374 5.77379 38.9546C5.08102 39.0363 4.39663 38.9398 3.71558 39.0456C2.81197 39.1849 2.29658 38.9565 2.89229 39.9443C4.75472 39.7717 8.62015 39.7364 10.4843 39.7345C11.0632 39.7345 11.182 39.6287 11.7275 39.6194C12.1643 39.6194 12.6462 39.651 13.0763 39.6194L21.8178 39.417C22.5005 39.417 22.5089 39.4727 22.9691 39.2034V38.6705C22.3616 38.3474 14.527 38.6705 13.6485 38.6705C13.938 38.236 15.5076 37.1851 15.9695 36.7673C16.9634 35.8816 17.1408 35.6792 17.7248 34.1324C17.9858 33.4342 18.4042 32.6655 18.5498 31.9488L24.7127 31.7631C25.7736 31.6313 27.9422 31.7018 29.2843 31.505C30.0473 31.3936 30.1996 31.5588 30.5192 31.1708C30.5292 31.1578 30.5443 31.1262 30.5593 31.1076C30.4656 30.7177 30.4589 30.8848 30.2715 30.5747L26.14 30.8941C25.6263 30.9257 25.1528 30.8532 24.634 30.9387L18.7338 31.1243L18.8292 27.9102C19.0317 27.8006 19.4818 27.6873 19.706 27.6038C20.3369 27.3661 22.0052 26.861 22.5758 26.8425C22.631 27.5611 23.4259 28.5693 23.7672 28.8274C24.7378 29.5702 26.4011 29.4383 27.5724 29.507C28.0744 29.5367 28.3756 29.6203 29.0148 29.6147C30.6882 29.5962 33.6199 30.4169 34.6189 27.8377L35.7065 24.0126L36.1366 21.0788C38.9963 21.8216 38.5178 20.0204 39.6222 16.9511C39.7711 16.5407 39.9016 16.1211 40.0271 15.6959C40.2246 15.0274 40.3886 14.7674 41.0763 14.2995C41.2492 14.1999 41.4281 14.1136 41.6118 14.0414L42.1841 15.3264C42.4077 15.7645 42.611 16.2151 42.7931 16.6763C42.9607 17.1424 43.1704 17.5884 43.419 18.0076C44.0666 19.1329 43.7035 18.7207 44.0147 19.3724C43.5713 19.7011 42.2343 20.9117 41.8996 21.6006C41.4193 22.6014 40.7282 23.3108 40.3484 24.4639C40.1275 25.1249 39.8849 27.6316 39.8832 28.5322C39.8832 29.3789 39.91 29.9638 40.1091 30.6267C40.2764 31.1838 40.4203 31.9432 40.6713 32.3703V32.3796ZM2.02717 6.89815C2.36184 6.3411 2.92743 6.46922 3.66872 6.37452C5.07433 6.18884 6.34607 6.32439 7.61446 6.16842C9.62247 5.91589 9.63251 6.92601 8.56324 7.00771C6.61715 7.15626 5.16971 7.02813 3.52481 7.28066C2.75507 7.39764 2.18614 7.56662 2.02717 6.89815ZM54.1987 17.2389C54.1987 16.1248 57.0835 18.3066 57.1923 18.3957C58.9376 19.8273 59.7491 21.0287 60.7063 23.1399C61.0309 23.8585 62.1788 25.8751 61.3154 25.8751C60.7113 25.8751 59.8696 22.1911 58.0038 20.2748C57.0304 19.2319 55.8896 18.4006 54.6404 17.8238C54.3058 17.6604 54.2053 17.6845 54.2053 17.2389H54.1987ZM30.8538 23.6376C31.2705 23.6376 31.2337 23.6821 31.5115 23.866C31.6788 23.9792 31.8679 24.0683 32.0135 24.1668C32.4904 24.5029 32.4904 25.2809 32.4904 25.8751C32.4904 27.0133 30.9091 26.9427 30.0891 26.9427C29.8616 26.9427 29.4666 26.4674 29.3545 26.2631C28.7488 25.149 29.7243 23.6376 30.8605 23.6376H30.8538ZM9.61912 29.3938C9.96238 29.3968 10.3043 29.3462 10.6348 29.2434C11.0431 29.1375 11.1569 29.1264 11.6104 29.0447L16.935 27.5964C18.0862 27.225 19.1455 26.7292 20.3603 26.3875L23.9362 25.4591C23.9045 25.0469 23.8392 25.0395 23.8392 24.4991L21.9751 25.0952C21.289 25.2809 20.6967 25.4666 20.0708 25.6522C18.8125 26.0106 17.6093 26.3764 16.3644 26.7663C15.8021 26.9409 15.0742 27.1804 14.4986 27.3605L10.7737 28.4356C10.0291 28.6399 9.37482 28.7123 9.23593 29.2879C9.49865 29.4328 9.1188 29.3938 9.6208 29.3938H9.61912ZM50.7415 25.0228C51.3506 25.3477 52.1522 25.2456 52.7713 26.7162C52.9872 27.2268 53.3352 27.6706 53.3352 28.5415C53.3352 29.7521 52.624 31.531 51.3071 32.0472C49.7141 32.6692 49.1485 32.3796 48.0307 31.5496C47.8487 31.4412 47.6904 31.2897 47.5672 31.1058C47.0535 30.3352 46.8025 29.4606 46.8025 28.1144C46.8025 27.5258 46.9932 27.4014 47.0903 26.9427H47.2827C47.4651 27.8062 47.9169 28.1404 48.3018 28.7996C48.8791 29.7856 49.1485 29.9322 50.3583 29.9322C51.3054 29.9322 52.0869 29.3436 52.0869 28.3317C52.0869 27.7616 51.4527 26.8165 51.0611 25.9512C50.8938 25.5668 50.8737 25.3533 50.7415 25.0228ZM5.68008 28.5508C5.68008 27.9937 5.97458 27.4367 6.15698 27.0541C6.2808 26.7905 6.746 26.096 6.9652 25.927C7.83367 25.2567 12.0421 23.8511 12.6931 26.952C12.9759 26.8016 14.1221 26.4284 14.5187 26.4191C14.4869 24.8167 13.0796 23.4352 11.8664 22.9654C9.66431 22.115 9.20749 22.7797 7.27143 23.3869C6.53014 23.619 5.93275 24.1649 5.41401 24.7368C4.89528 25.3087 4.27279 26.5677 4.02347 27.4608C3.86617 28.0178 3.56497 28.6696 3.56497 29.5033C3.56497 30.0158 3.84275 31.4939 4.09877 31.8986L5.27011 33.4807C5.7604 34.1287 5.96288 34.5187 6.73931 34.8362C8.4913 35.5529 8.59839 35.5325 10.091 35.3672C11.095 35.2502 12.2764 34.4629 13.103 33.9059C13.6351 33.5345 14.7178 31.8039 14.9203 31.1206C15.3537 29.663 15.1612 29.9155 15.0993 29.0781L13.4661 29.5052C13.4661 30.701 13.2084 31.1503 12.6763 31.8262C11.9467 32.7546 11.0365 33.7703 9.81491 33.7703C7.99097 33.7703 7.8069 33.9337 6.66568 32.5708C5.54621 31.245 5.68343 30.2071 5.68343 28.5452L5.68008 28.5508ZM28.3556 25.0228C28.3556 25.6559 28.307 25.8305 28.4811 26.3745C28.6015 26.7459 28.6651 26.7459 28.7387 27.0486C27.544 27.0486 25.6899 26.9706 25.0725 25.8936C24.7378 25.3013 24.7026 24.5474 24.7026 23.8511C24.7026 22.6887 25.7702 20.7427 26.7843 20.5088C27.7983 20.2748 28.9814 20.2823 29.8281 20.8282C30.8321 21.4743 30.7585 21.8754 31.1417 22.685C30.0891 22.685 29.2073 23.1696 28.717 24.0461C28.5814 24.2875 28.3556 24.6978 28.3556 25.0302V25.0228ZM49.4932 21.9311C51.9698 21.9311 54.5233 23.2848 55.5959 25.7135C56.4008 27.5351 56.3322 29.6612 55.4671 31.2265C54.2087 33.5011 54.6839 33.4194 52.2793 34.7266C51.3473 35.2335 50.1274 35.3654 49.013 35.3654C47.8985 35.3654 46.3758 34.0656 45.76 33.217C45.2981 32.5764 45.1224 32.6599 44.7008 31.5124C43.921 29.3789 43.8858 28.0587 44.674 25.8583C44.9802 25.0005 45.1342 24.8612 45.6596 24.3933C45.9189 24.1649 45.7884 24.1649 46.1298 24.0628C46.1599 24.4713 46.2837 24.5567 46.4109 24.8167C47.2242 26.4767 45.9374 26.0533 45.9374 28.3279C45.9374 29.689 46.3523 30.9554 46.9246 31.7111C47.3313 32.2459 48.7904 33.3396 49.5886 33.3396C52.6993 33.3396 53.5695 31.5403 54.1451 29.0038C54.4312 27.7337 53.2415 24.0628 50.2613 24.0628L49.4932 21.9311ZM8.75233 36.4312C8.25033 36.4312 6.52345 35.7813 6.15531 35.5826C5.27848 35.1035 4.96389 34.6393 4.40164 33.7963C3.8394 32.9533 3.19349 32.3239 3.02616 31.5904C2.46057 29.093 2.82034 27.3197 4.08371 25.1732C4.90867 23.7713 5.77713 22.8243 7.38689 22.3359C9.31625 21.7473 9.75802 21.1735 12.104 22.05C13.8175 22.6906 14.9688 24.1241 15.3821 26.0886C15.9577 25.9401 16.5133 25.7172 17.1107 25.5557C17.0889 24.4137 15.2114 22.3471 14.3798 21.6563C13.7664 21.1283 13.0908 20.696 12.3718 20.3714C11.5287 20.1305 10.6746 19.9396 9.81324 19.7995C8.33006 19.808 6.86785 20.1889 5.53617 20.9136C4.45519 21.5226 3.83606 22.4121 3.24704 23.0638L2.19785 24.2447C2.03384 24.4686 1.90178 24.7191 1.80629 24.9875C1.69887 25.2466 1.57181 25.495 1.42644 25.7302C0.569693 27.1228 0.829061 29.1505 1.02986 30.6044C1.09564 31.243 1.2421 31.868 1.46493 32.4613C1.89832 33.7833 2.4957 35.2558 3.39596 36.1749L5.29019 37.5917C7.31661 38.8915 10.921 39.0475 12.9876 37.9055C13.2291 37.8042 13.4499 37.6502 13.6368 37.4524C14.4919 36.5463 15.8808 36.0877 16.5116 34.7786C16.8363 34.1064 17.6395 32.179 17.7683 31.4809C18.1548 29.3993 18.1666 30.2461 17.9842 28.2017L15.9611 28.8683C15.9611 29.4105 16.0582 29.3548 16.0582 29.8283C16.0582 31.4474 14.7195 33.6329 13.7774 34.5484C13.4427 34.8807 12.6245 35.2911 12.1693 35.5343C10.8306 36.2678 10.434 36.4386 8.75568 36.4386L8.75233 36.4312ZM23.8375 23.5299C23.3757 23.5726 22.9456 23.84 22.4988 23.9569C22.3488 23.6118 22.2202 23.2557 22.114 22.8911C22.3332 22.529 23.3338 21.6916 23.5815 21.4261L26.9416 17.8981C27.2863 17.5174 27.5607 17.2148 27.9037 16.8322C28.9078 15.7181 28.9362 15.8128 29.8967 14.8881C30.1494 15.0924 30.049 15.1462 30.6095 15.5882C30.9091 15.8258 31.1115 15.9595 31.4077 16.1954L35.0155 19.6565C35.2899 19.9536 35.5007 20.0687 35.4204 20.5849L34.7176 24.2986C34.485 24.9801 33.9345 27.3457 33.7404 27.6929C33.0325 28.963 31.7641 28.7587 30.561 28.7587C29.4064 28.7587 28.051 28.5489 27.3951 28.5415C26.4379 28.5285 24.6893 28.5768 24.0383 27.7876C23.5614 27.2083 23.62 27.3234 23.451 26.5194C23.8844 26.5082 23.953 26.3987 24.3161 26.3058C24.6826 26.913 24.9168 27.1303 25.633 27.5109C26.637 28.0457 27.7197 28.0123 28.8324 28.0123C29.2792 28.0123 28.9831 27.9269 29.3529 27.8544C29.4918 27.8266 31.2939 28.1274 32.4184 27.5147C33.8475 26.7385 33.3522 24.397 32.8953 23.8233C32.4937 23.3182 32.323 23.3033 31.811 23.0007C31.9298 22.4436 31.9532 22.1521 31.5198 21.2979C31.1132 20.4939 29.5369 19.3761 28.3522 19.3761C26.622 19.3761 25.7819 19.5878 24.8382 21.1253C24.5504 21.595 23.948 22.0537 23.8342 23.5392L23.8375 23.5299ZM48.1462 18.3066C49.7777 18.3066 49.0481 17.8758 51.7773 18.6482C52.4467 18.8339 53.1762 18.9453 53.8757 19.2053C55.6713 19.8982 57.1908 21.2683 58.1695 23.0768C58.4903 23.6982 58.7781 24.3399 59.0313 24.9986C59.2605 25.5872 59.6253 26.5157 59.719 27.1154C60.1139 29.6426 60.1156 29.715 59.4161 31.5718C59.1928 32.1524 58.9264 32.7114 58.6196 33.243C58.0624 34.1714 57.2994 35.5362 56.6032 36.123C56.1498 36.5055 53.6598 38.4366 53.111 38.6446C52.2977 38.9546 49.9701 39.1013 49.1301 38.9732C48.3269 38.8525 46.8995 38.6353 46.2854 38.2899C44.3109 37.1758 43.7754 36.8044 42.6041 34.6895C41.2286 32.1623 40.3283 29.5182 40.8939 26.4711C41.262 24.5121 40.6797 25.3941 41.913 23.3386C42.3598 22.5959 42.5304 22.1187 42.9739 21.6377C43.3571 21.2181 43.8624 20.4958 44.4799 20.4382C44.8246 21.1605 45.4571 22.2654 45.6328 23.1028C45.2028 23.8177 43.2316 24.618 43.2316 29.0744C43.2316 30.9795 44.2506 32.9218 45.3684 34.1659C46.7908 35.7479 48.5829 36.7654 50.6779 36.1657C51.2887 35.9911 51.769 36.0747 52.7127 35.5436C53.4925 35.1054 54.2405 34.8009 54.7843 34.112C55.3282 33.4231 55.7164 32.6042 56.1096 31.8522C57.127 29.91 57.2341 28.1645 56.5765 25.9939C55.9071 23.7657 53.9108 21.9367 51.8794 21.3964C48.9711 20.6221 49.2857 21.3704 48.7687 20.156C48.6013 19.7735 48.1746 18.6817 48.1311 18.2992L48.1462 18.3066ZM45.9357 17.0272H46.513C47.6977 19.5135 48.1863 20.8634 49.0498 23.2736C49.3025 23.9811 50.4905 26.9167 50.8369 27.4738C51.9463 29.2545 49.7978 29.4736 49.0883 28.4542L48.3637 27.3401C47.8935 26.538 47.5789 25.3533 47.2509 24.631C46.7489 23.5262 46.0177 21.4576 45.6077 20.6982C45.35 20.221 45.1961 19.8385 44.9752 19.3724C46.0763 18.5535 46.9983 19.1514 46.1214 17.4617L45.9357 17.0272ZM21.3375 13.9356C22.8335 13.9356 25.792 14.5743 28.7354 14.5743C28.6568 14.8993 28.4108 15.0645 27.9238 15.486L22.7063 20.9971C22.3968 21.3444 22.2043 21.7009 21.7224 21.8253C21.6533 21.4962 21.557 21.1748 21.4346 20.8653C21.2957 20.5236 21.0782 20.2952 21.0497 19.9053C21.4262 19.87 22.3148 19.6936 22.5658 19.3483C23.0008 18.7541 22.6243 18.0893 22.4553 17.4914C22.042 16.0375 22.1926 15.7274 21.3375 13.9337V13.9356ZM5.96622 10.9498C6.37503 11.0692 6.79397 11.1407 7.21621 11.1633C7.41031 12.0917 7.61447 12.3071 7.75335 13.0202L8.1767 15.1091C7.6747 14.812 6.42137 14.1027 5.77379 14.0433C5.77379 13.5475 5.74534 12.9292 5.77379 12.4501C5.80223 11.971 5.95116 11.4214 5.9612 10.9516L5.96622 10.9498ZM8.1767 11.3768L13.7088 12.2737C14.8801 12.4594 14.6726 12.8308 16.8229 13.0814C17.5926 13.1724 18.2686 13.399 18.953 13.4918C20.2214 13.6608 20.1244 13.2634 20.8422 14.9123C20.9226 15.098 20.9862 15.2836 21.038 15.4433L21.9149 18.7336L19.281 19.3278C18.7455 19.4188 18.3272 19.4745 17.8721 19.5748C15.2332 20.156 16.8329 19.9462 13.7372 18.6464C13.0043 18.3363 10.7654 17.7477 9.93706 17.3187C9.51538 17.1015 9.65594 17.1145 9.52877 16.5983L8.1767 11.3843V11.3768ZM4.91703 13.5085C3.18345 13.3488 3.47629 12.6711 3.47629 11.5885C3.47629 11.1819 3.88625 11.0593 4.15901 10.9572C4.7681 10.727 4.51544 10.7882 5.10947 10.8421C5.10947 11.5365 4.91703 12.1642 4.91703 13.5085ZM43.5428 11.5885C43.1864 11.3249 43.168 11.0538 42.9655 10.6304C43.588 10.259 43.8825 9.56273 45.8487 9.56273L50.7516 9.66671C51.282 9.72984 53.1997 11.8448 53.3419 12.4427C53.0323 12.4148 53.0072 12.361 52.8031 12.1883L51.4527 11.128C49.5434 9.87467 46.3758 10.1402 44.3929 10.9331C43.8407 11.154 43.9411 11.2914 43.5428 11.5885ZM36.0412 5.40526C36.5131 5.40526 37.5857 5.36812 37.8819 5.6095L39.2206 8.92397C39.3661 9.27491 39.5552 9.5423 39.7326 9.95452C39.91 10.3667 40.0254 10.6471 40.2212 11.0111L41.2286 13.1891C40.4706 13.5921 40.8069 13.2708 40.0974 13.9579C39.2323 14.7934 39.4548 14.5502 38.9261 16.2938C38.7186 17.0421 37.8518 20.3268 37.3799 20.3268C36.3491 20.3268 36.744 20.1151 36.3223 19.6862C36.1249 19.4838 36.1901 19.6676 35.9157 19.391C35.5928 19.066 35.9157 19.1756 35.2112 18.5758L33.9897 17.4784C33.22 16.8452 32.8401 16.1044 31.6738 15.2502C29.977 14.008 30.7852 13.9504 30.1377 13.7555C30.0322 13.7239 28.9496 13.6162 28.8291 13.6088C27.8251 13.5494 27.0403 13.5382 26.038 13.5067L20.8623 12.8549C20.4486 12.7545 20.0294 12.685 19.6073 12.6469C18.9781 12.5931 17.9925 12.2756 17.1759 12.1474C15.8373 11.9488 16.356 12.2031 15.4675 11.6962C15.2778 11.6034 15.0772 11.5409 14.8718 11.5105L3.6135 9.61099C2.75006 9.46987 1.82972 9.44388 1.06166 9.23962V8.92025C1.83809 8.92025 2.20789 8.80884 2.98265 8.81255C3.65199 8.81255 4.32132 8.81255 5.0007 8.81255C5.77713 8.81255 6.14527 8.69928 6.9217 8.70485H9.90026C10.3236 8.72899 10.3019 8.79956 10.762 8.81627C13.4159 8.89983 12.1225 9.14864 15.1713 10.532C16.0732 10.9424 17.0438 11.388 17.9725 11.7965C19.2877 12.3758 19.4132 12.6506 21.2372 12.6506C22.2495 12.6506 25.2532 12.762 25.9828 12.3721C26.9382 11.8578 29.06 10.3463 30.0138 9.70013C30.223 9.55901 30.6832 9.02424 30.7501 9.02424C31.3324 9.02424 31.6169 9.34547 31.9984 9.34547H37.2828C39.4331 9.34547 39.331 8.10139 37.9739 8.29078C36.7306 8.46347 33.8659 8.38548 32.4787 8.38548C32.1761 8.36284 31.8774 8.29668 31.5901 8.18866C31.227 8.08839 31.2053 8.16452 31.3241 7.54805C31.5834 6.21112 34.8247 5.39968 36.0345 5.39968L36.0412 5.40526ZM24.127 11.6962C22.5892 11.6962 20.4457 11.9302 19.3479 11.349C18.5949 10.9479 16.1468 10.0492 15.1646 9.49216L13.4678 8.49689H20.3787C22.3968 8.48575 25.0641 8.99638 26.9684 8.12552C27.2356 7.98014 27.5118 7.85604 27.795 7.75415L29.9703 6.965C30.3167 6.80159 30.0289 6.81459 30.4723 6.77931C30.4723 8.09953 30.387 8.26478 29.6273 8.82184C28.8224 9.41045 26.1283 11.3917 25.305 11.6071L24.1337 11.6814L24.127 11.6962ZM37.9605 4.54368C38.3608 4.52418 38.7535 4.41557 39.1151 4.22431L41.4578 9.30648C42.4484 11.7779 42.2577 11.0575 43.0893 12.7212C43.3971 13.2822 43.6765 13.8618 43.926 14.4574L45.3651 18.0856C44.8631 18.2137 45.0722 18.3623 44.5953 18.405C44.515 18.0151 43.8223 17.0161 43.4039 15.8908L41.3842 11.4158C41.0629 10.8291 40.827 10.2553 40.5609 9.66113C39.92 8.22951 39.6272 7.7653 39.008 6.05515C38.9461 5.88247 38.901 5.75991 38.8541 5.58536C38.8174 5.42105 38.7721 5.25923 38.7186 5.10073C38.5964 4.81292 38.6667 4.91505 38.4257 4.78507L37.9572 4.55668L37.9605 4.54368ZM39.4983 3.05821V2.73884C40.0171 2.74998 39.9903 2.84281 40.176 3.26617C40.6697 4.39328 42.9019 8.81441 42.9571 9.55715C42.6743 9.64256 42.8015 9.60172 42.5739 9.77069C42.0719 8.73272 42.1154 8.31678 41.4779 7.25652C40.8655 6.24083 40.3568 4.44526 39.7109 3.45928C39.6004 3.29031 39.4983 3.32559 39.4983 3.05449V3.05821ZM35.6496 1.35177C35.6496 0.750156 36.2403 1.21994 36.4194 1.35177C36.3441 1.66372 36.3608 1.74171 36.0847 1.72314C35.827 1.71014 35.658 1.63401 35.658 1.35177H35.6496ZM37.1875 1.0324C38.0693 1.1141 38.5629 2.61999 38.6282 3.48342C38.2999 3.49901 37.9757 3.5717 37.6677 3.69882C37.5389 3.48157 37.421 3.25654 37.3146 3.02479C37.1724 2.74069 37.0435 2.55129 36.8996 2.31176C37.1941 1.9441 37.3883 1.52074 37.1925 1.03425L37.1875 1.0324Z" fill="#1F1F20"/>
</svg>
