<svg width="55" height="30" viewBox="0 0 55 30" fill="none" xmlns="http://www.w3.org/2000/svg">
<path fill-rule="evenodd" clip-rule="evenodd" d="M22.4086 28.8265C19.8443 28.8265 15.1794 29.0331 13.1623 27.8414C12.9838 27.737 12.9305 27.7098 12.745 27.6008C12.665 27.5517 12.5876 27.4987 12.5131 27.4419C12.1955 27.2149 12.4946 27.4419 12.2952 27.2626C13.466 27.2876 14.3981 27.9141 16.5543 27.9141C19.9765 27.9141 22.8839 28.3476 24.5023 25.3968C24.9868 24.5116 25.1283 23.522 25.4668 22.5641C25.7775 21.6812 28.3163 21.2227 29.3897 21.8673C30.4632 22.5119 29.6842 24.9951 30.4238 26.1981C30.6835 26.6203 30.6557 26.8064 30.8643 27.2013C31.5599 28.4792 33.3776 28.1751 35.0609 28.1751C37.085 28.1751 38.963 27.6825 40.9175 27.5237C40.5512 28.0139 39.5426 28.2613 38.7381 28.3862C37.5301 28.5768 35.5733 28.3657 34.261 28.4361C33.6582 28.4679 33.533 28.57 32.8026 28.57C31.0915 28.57 31.4347 28.7312 30.134 28.4361L29.508 25.7804C29.2367 24.8725 29.7398 24.7817 29.1161 23.3086C28.5945 22.0829 26.8556 21.5949 25.6082 23.7444C25.3731 24.214 25.2166 24.7175 25.1445 25.2357C24.9358 26.2117 24.8779 25.9529 24.5046 26.6929C23.9505 27.7892 24.1661 28.8265 22.4179 28.8265H22.4086ZM42.1162 21.6585C42.1543 21.8924 42.2454 22.1149 42.3828 22.3099H43.1804C43.6603 20.2966 42.1162 21.0615 42.1162 21.6585ZM51.0356 5.36808C51.7474 5.36808 52.0534 5.34312 52.2343 4.58501C51.81 4.14694 51.8401 4.19459 51.5689 4.19459C51.1562 4.19459 50.5487 4.46697 51.0356 5.36808ZM39.4429 0.547018C39.4429 1.51622 39.487 1.72051 40.2405 2.10864C40.4306 1.94749 40.1477 2.16086 40.4584 1.93161C40.6138 1.81585 40.6439 1.80223 40.7738 1.71824C40.5628 -0.762652 39.4429 0.0204231 39.4429 0.547018ZM40.2405 3.67254C40.2405 4.19914 40.4167 4.49648 40.521 5.09344C40.6254 5.6904 40.7088 6.00136 41.307 6.14889L41.8171 5.73579C41.9029 2.71014 40.2405 3.11871 40.2405 3.67254ZM4.96165 8.23484C4.96165 8.46182 5.34421 8.65702 5.49491 8.7569C6.29481 8.5458 5.98644 8.10773 6.86285 7.09767C7.07383 6.8548 7.43552 6.59832 7.58623 6.35545C7.91778 5.8334 7.46798 4.55777 5.80096 6.58243C5.48332 6.96603 4.96165 7.62881 4.96165 8.23712V8.23484ZM45.3042 7.71279C45.3042 9.34024 49.2967 7.03185 49.2967 6.40993C49.2967 5.03215 47.4256 6.56427 46.2826 6.98645C45.8444 7.14988 45.2949 7.23386 45.2949 7.71279H45.3042ZM20.5445 18.399C20.5445 18.9801 20.941 19.3728 21.4186 19.0141C21.7826 18.7418 23.3407 15.5232 23.3407 15.1419C23.3407 14.8445 23.2943 14.9898 23.2085 14.6221C22.666 14.4813 22.4921 14.4269 22.2023 14.9376C21.9982 15.2939 21.8893 15.7456 21.6992 16.1428C21.509 16.5401 20.5399 18.2265 20.5399 18.399H20.5445ZM7.23149 9.66709C6.13714 8.9521 7.28714 8.28932 8.25628 7.41318C8.75477 6.95921 10.8299 5.34085 11.4837 5.39986C11.9335 5.44072 12.476 6.13755 11.3654 6.67776C10.3451 7.19662 9.41159 7.86481 8.59711 8.6593C8.16818 9.08148 7.90155 9.51728 7.23149 9.66709ZM14.9522 18.7917C14.9522 19.0913 14.9986 18.9438 15.0867 19.3138C16.1416 19.5861 16.0929 18.8598 17.2429 17.1234C17.7669 16.329 19.7933 13.4486 18.1495 13.4486C17.7321 13.4486 17.178 14.9739 16.545 16.0475C16.2993 16.4674 14.9522 18.399 14.9522 18.7917ZM43.4424 6.40993C43.4424 5.79254 44.6156 3.96534 44.91 3.41378C45.434 2.42642 45.805 1.02368 46.6373 0.805779C47.6876 1.48672 46.9967 1.65923 46.4472 2.96664C45.8119 4.47379 44.7431 5.645 44.3744 7.19074H43.5769L43.4424 6.40993ZM42.6448 20.4827C41.8264 19.947 42.2112 19.543 42.093 18.4172C41.7406 15.0624 39.851 12.7926 41.1795 12.7926C41.9423 12.7926 41.8751 13.3419 42.1486 14.0592C42.7886 15.7229 43.3079 17.1484 43.3079 19.1776C43.3079 20.2716 43.4169 20.3125 42.6425 20.4804L42.6448 20.4827ZM15.6176 22.4393C15.6176 23.3472 16.4198 23.3949 16.7491 22.7661C17.0203 22.2532 16.8163 22.412 17.5235 21.1773L20.0113 16.4447C20.2872 15.9045 22.5431 11.7984 22.5431 11.492C22.5457 11.4229 22.5337 11.3539 22.5078 11.2896C22.4819 11.2252 22.4427 11.1668 22.3926 11.118C22.3425 11.0691 22.2826 11.031 22.2168 11.0059C22.1509 10.9808 22.0805 10.9694 22.0098 10.9722C21.3143 10.9722 20.5028 13.0151 20.1898 13.6211L16.3271 20.9185C16.0953 21.3293 15.6176 21.9082 15.6176 22.4416V22.4393ZM29.5961 20.6234C30.1641 20.6688 30.2731 20.6938 30.396 21.1455L29.5961 20.6234ZM21.2099 24.9179C22.5686 24.9179 20.9781 19.7995 25.0819 19.4545C27.2845 19.2661 27.936 18.9075 30.0783 19.4931C31.2237 19.8063 32.1905 21.4406 32.8235 22.412C33.9828 24.2007 32.8235 24.8271 34.3584 24.6478L36.8369 24.3255C37.449 24.2846 36.9505 24.3959 37.5881 24.3959L43.5606 23.985C44.1681 23.9101 44.5993 23.6604 45.1836 23.6128C45.0746 22.3258 44.9517 20.9639 44.9216 19.5702C44.8799 17.8497 43.4122 12.8426 41.9678 11.9051C39.4823 10.289 36.9714 9.98033 33.6211 9.53091C28.14 8.79776 23.2433 8.45502 17.804 9.70114C16.429 10.0304 15.0781 10.4497 13.7605 10.9563C12.0587 11.5601 12.0332 11.3763 11.7202 12.4771L9.94882 19.4772C9.64045 21.0093 8.94721 22.9886 10.2062 23.4584C10.6704 23.6229 11.1574 23.7178 11.6506 23.7399C14.456 23.9056 15.0913 24.2801 16.0558 24.38L19.0236 24.7318C20.2153 24.9588 20.0391 24.9179 21.2308 24.9179H21.2099ZM4.43534 17.7499C4.43534 20.1786 4.55822 19.5657 4.70197 21.2681C3.65167 21.2681 2.36489 21.1795 1.76439 20.3601C1.12679 19.4931 1.31923 18.3536 1.24271 16.9554C1.21953 16.5537 0.904211 14.3111 1.62528 13.6801C1.94755 13.3986 4.38665 13.1762 5.10308 13.1762C5.04975 13.7959 4.89673 13.6665 4.75993 14.1454C4.64864 14.5404 4.72515 14.958 4.69501 15.3847C4.63473 16.2019 4.43534 16.7466 4.43534 17.7385V17.7499ZM49.0347 12.9265C49.6491 12.9129 49.4798 12.7972 49.9621 12.7972C50.7527 12.7972 52.5125 12.9492 52.909 13.301C54.3511 14.5789 53.6857 17.5774 53.4608 19.0891C53.1617 21.1046 52.9553 20.8754 50.0943 20.8754C50.0943 19.0119 50.0734 18.0767 49.7697 16.2427C49.5378 14.79 49.6306 14.0365 49.0301 12.9265H49.0347ZM5.90993 20.8709L5.58301 18.4444C5.50186 17.8747 5.85196 14.5267 6.25771 13.7845C6.48956 13.3533 6.47333 13.3533 6.88835 13.1036C7.22504 12.8694 7.63645 12.7615 8.04762 12.7994C7.7207 13.4645 7.01819 16.0566 6.84661 16.7058C6.58926 17.6795 5.9192 20.0764 5.9192 20.8777L5.90993 20.8709ZM46.38 12.3999C46.5028 12.6678 46.6118 13.0378 46.7324 13.3601C47.2587 14.8672 47.1961 14.8286 47.523 16.4947C47.9682 18.7009 48.5756 19.711 48.2441 21.915C48.8121 21.8696 48.7217 21.8469 48.8307 21.3157C49.1135 19.9062 48.6498 16.6626 48.4713 15.4369C48.2139 13.696 48.1073 12.3999 46.3846 12.3999H46.38ZM20.1434 26.0891L14.9267 25.3333C11.9543 24.6296 8.94489 25.4899 8.36526 22.891C8.08935 21.663 9.2463 16.8783 9.59872 15.6276C9.83057 14.79 9.96737 14.0864 10.2131 13.233C10.9922 10.5432 10.9087 10.7362 12.8377 10.0552C17.0667 8.57759 19.7354 7.69237 25.2025 7.69237C29.9972 7.69237 38.2929 8.62525 41.314 10.1664C41.8565 10.4456 42.2831 10.7838 42.8001 11.0562C43.7739 11.5624 44.8683 14.411 45.223 15.4642C46.6025 19.5657 45.8003 20.0038 46.2733 22.3825C46.3521 22.7684 46.5052 22.7253 46.5052 23.2019C46.5052 25.5035 41.4832 25.3469 39.9808 25.4173C39.4986 25.44 39.2273 25.5149 38.6685 25.5784C37.9057 25.6647 38.177 25.5466 37.4513 25.5466C35.7495 25.5466 33.2779 26.1459 32.6079 25.3378C32.1813 24.8203 32.5337 24.5162 31.9958 23.3313C31.7825 22.8615 31.3303 22.1624 30.9292 21.8991C30.9663 22.353 31.131 22.807 31.175 23.2224C31.3234 24.641 31.2051 24.9247 31.6387 25.903C31.852 26.3978 31.757 26.5839 32.1372 26.8518C33.1643 27.3353 36.969 26.8768 38.2234 26.6861C40.6972 26.3116 45.5754 26.2571 46.5423 24.9247C47.5462 23.5401 47.0338 21.7742 47.0454 20.7279C47.0616 18.9824 46.6234 18.2311 46.3243 16.6104C45.8977 14.3202 45.5499 13.351 44.6503 11.6032C44.0893 10.516 44.3698 10.339 43.1873 9.77605C40.9291 8.70016 40.6369 8.7569 37.8988 8.30748C36.9505 8.15313 36.0439 7.9307 35.1722 7.71734C30.0969 6.47348 24.1846 7.16578 19.1441 7.87622C16.3433 8.27117 14.3471 8.88401 11.7828 9.7942C10.2641 10.3321 10.081 10.205 9.81202 10.9927C9.32049 12.4453 7.1944 19.5385 7.11325 20.6007L6.97413 23.4607C7.09006 24.4027 7.55841 24.9156 8.40931 25.1926C8.78028 25.3129 9.2718 25.4195 9.64509 25.5444L16.1509 26.736C22.2115 26.736 22.7981 27.1491 24.2658 22.5482C24.7828 20.914 24.8477 21.1046 26.895 20.5622L27.4769 20.3488C26.9985 20.3681 26.5225 20.425 26.0534 20.519C23.3198 20.9094 23.9365 20.6938 23.2827 22.8887C22.3854 25.9007 22.9906 26.0823 20.155 26.0823L20.1434 26.0891ZM4.16871 22.4416C4.73211 22.4416 4.93846 22.1783 5.4184 22.378C6.24612 22.7253 5.22828 24.3777 6.86516 25.6669C7.68593 26.3116 9.16283 26.5385 10.2178 26.9448C11.1197 27.2899 11.5138 29.1216 15.2142 29.7435C16.1416 29.8979 20.9897 30 22.4017 30C24.9312 30 25.0471 28.1842 25.5062 27.3035C26.0325 26.2911 26.0464 26.6815 26.3177 25.2334C26.7304 23.0476 28.2606 22.8456 28.2606 24.9179C28.2606 25.7237 28.0125 24.9452 28.409 26.2026C28.5342 26.5976 28.664 27.2808 28.7661 27.678C29.1092 29.0399 28.9724 29.2669 30.2708 29.7208C31.0915 30.0114 34.3885 29.6028 35.1838 29.5892C36.5749 29.5642 38.5387 30.1339 41.1795 28.822C42.1394 28.343 42.0211 27.9844 42.4779 27.6167C43.6673 26.6566 47.0547 27.8891 48.1328 24.1621C48.2904 23.6219 48.0748 23.3971 48.4342 23.152C48.622 23.0249 48.9373 23.1157 49.3848 22.7798C49.6955 22.5528 49.7859 22.3689 49.8253 21.9081C51.9444 21.9081 53.2846 22.4915 54.2189 20.8663C54.7823 19.8858 56.0112 13.8594 53.368 12.1843C52.2459 11.4693 49.8763 11.7303 48.4991 11.7303C48.309 11.7303 47.5114 11.3468 47.108 11.2764C46.4426 11.1402 46.1041 11.2128 45.5685 10.9609C45.23 9.54225 45.8235 9.73746 42.8187 8.30748C41.5574 7.70825 39.9599 7.49036 38.3207 7.23841C36.6815 6.98646 35.3924 6.44397 33.8436 6.27827C28.0473 5.65862 25.4969 5.8561 20.0623 6.58471C17.4545 6.89528 14.889 7.48283 12.4111 8.33699C11.6228 8.59121 10.9504 8.88402 10.1807 9.14958C8.91011 9.58992 9.10023 9.46962 8.65739 10.7884C8.28179 11.9028 7.69984 11.4693 6.69127 11.862C6.10005 12.089 6.28089 12.1866 5.45086 12.0595C4.83413 11.9664 1.72034 12.3364 1.33546 12.4817C0.602801 12.7654 0.280524 13.5416 0.139093 14.4382C-0.0788494 15.8001 -0.0533452 18.7123 0.306028 19.9607C0.50774 20.6643 1.00159 21.4837 1.61832 21.8037C2.43318 22.1363 3.29306 22.3511 4.17103 22.4416H4.16871Z" fill="#202021"/>
</svg>
